# xmcd CD database file
# Copyright (C) 1993-1998 Ti Kan
#
# Track frame offsets:
#	150
#	11394
#	22276
#	39992
#	56880
#	74902
#	92357
#	106974
#	122383
#	138605
#	148929
#	163897
#	181490
#	196473
#
# Disc length: 2859 seconds
#
# Revision: 2
# Processed by: cddbd v1.4b41PL1 Copyright (c) Steve Scherf et al.
# Submitted via: CDValet v3.31 - Copyright (c) 1997 Greg Leichner
#
DISCID=d10b290e
DTITLE=Various Artist - Hot Hits Country Vol. 49
DYEAR=1900
DGENRE=
TTITLE0=Tall Tall Trees - Alan Jackson
TTITLE1=Born In The Dark - Doug Stone
TTITLE2=Nothing - Dwight Yoakam
TTITLE3=If I Had Any Pride Left At All - John Berry
TTITLE4=Rebecca Lynn - Bryan White
TTITLE5=Here Comes The Rain - The Mavericks
TTITLE6=Not Enough Hours In The Night - Doug Supernaw
TTITLE7=Those Words We Said - Kim Richey
TTITLE8=Listenin To The Raido - Chely Wright
TTITLE9=Rub A Dubbin - Ken Mellons
TTITLE10=Like There Ain't No Yesterday - Blackhawk
TTITLE11=On A Bus To St Cloud - Trisha Yearwood
TTITLE12=It Matters To Me - Faith Hill
TTITLE13=Ring On Her Finger Time On Her Hands - Reba McEntire
EXTD=
EXTT0=
EXTT1=
EXTT2=
EXTT3=
EXTT4=
EXTT5=
EXTT6=
EXTT7=
EXTT8=
EXTT9=
EXTT10=
EXTT11=
EXTT12=
EXTT13=
PLAYORDER=
